<?xml version="1.0" encoding="UTF-8" standalone="no"?>
<svg width="203px" height="41px" viewBox="0 0 203 41" version="1.1" xmlns="http://www.w3.org/2000/svg" xmlns:xlink="http://www.w3.org/1999/xlink">
    <!-- Generator: Sketch 3.8.1 (29687) - http://www.bohemiancoding.com/sketch -->
    <title>logo</title>
    <desc>Created with Sketch.</desc>
    <defs></defs>
    <g id="Page-1" stroke="none" stroke-width="1" fill="none" fill-rule="evenodd">
        <g id="Mock-Combo-Copy" transform="translate(-93.000000, -53.000000)">
            <g id="logo" transform="translate(93.217773, 53.179688)">
                <path d="M34.9425287,9.65516805 L50.1397558,6.70015568 C50.8878239,6.5546982 51.2735362,7.0044866 50.9956563,7.71921571 C50.9956563,7.71921571 38.7823075,39.1333975 38.6206897,39.5402287 C38.4590718,39.9470598 38.1609196,40.0000007 38.1609196,40.0000007 L34.9425287,9.65516805 Z" id="Path-30-Copy-37" fill="#F6A93E"></path>
                <path d="M4.08357894e-16,9.65516805 L15.1972271,6.70015568 C15.9452952,6.5546982 16.3310075,7.0044866 16.0531275,7.71921571 C16.0531275,7.71921571 3.83977877,39.1333975 3.67816092,39.5402287 C3.51654307,39.9470598 3.21839083,40.0000007 3.21839083,40.0000007 L4.08357894e-16,9.65516805 Z" id="Path-30-Copy-36" fill="#EFA034" transform="translate(8.071151, 23.336575) scale(-1, 1) translate(-8.071151, -23.336575) "></path>
                <path d="M26.2068966,0.451955598 C25.7471265,-1.56869215e-09 25.2873563,0 25.2873563,0 L25.2873563,32.6436782 L35.862069,9.65517241 C35.862069,9.65517241 26.6666667,0.903911197 26.2068966,0.451955598 Z" id="Path-31-Copy-37" fill="#F2A131"></path>
                <path d="M16.091954,0.451955598 C15.6321839,-1.56869215e-09 15.1724138,0 15.1724138,0 L15.1724138,32.6436782 L25.7471265,9.65517241 C25.7471265,9.65517241 16.5517242,0.903911197 16.091954,0.451955598 Z" id="Path-31-Copy-36" fill="#FFC36E" transform="translate(20.459770, 16.321839) scale(-1, 1) translate(-20.459770, -16.321839) "></path>
                <path d="M35.4022989,9.65517241 L38.6206897,40 C38.6206897,40 38.6206897,40 38.1609196,40 C37.7011495,40 24.8275862,32.6436782 24.8275862,32.6436782 L35.4022989,9.65517241 Z" id="Path-55-Copy-25" fill="#FBB85B"></path>
                <path d="M22.9885058,9.65517241 L26.2068966,40 C26.2068966,40 26.2068966,40 25.7471265,40 C25.2873563,40 12.4137931,32.6436782 12.4137931,32.6436782 L22.9885058,9.65517241 Z" id="Path-55-Copy-24" fill="#FAAF47" transform="translate(19.310345, 24.827586) scale(-1, 1) translate(-19.310345, -24.827586) "></path>
                <text id="WAYTOPIA" font-family="Comfortaa-Regular, Comfortaa" font-size="21.6091954" font-weight="normal" letter-spacing="4.58283468" fill="#27152E">
                    <tspan x="62.5223423" y="31.9122264">WAYTOPIA</tspan>
                </text>
            </g>
        </g>
    </g>
</svg>